<?xml version="1.0" ?><!DOCTYPE svg  PUBLIC '-//W3C//DTD SVG 1.1//EN'  'http://www.w3.org/Graphics/SVG/1.1/DTD/svg11.dtd'><svg enable-background="new 0 0 64 64" height="64px" id="Layer_1" version="1.1" viewBox="0 0 64 64" width="64px" xml:space="preserve" xmlns="http://www.w3.org/2000/svg" xmlns:xlink="http://www.w3.org/1999/xlink"><g><path d="M41.883,27.817c0,0-1.479-1.715-2.495-1.715h-0.845v-3.949c0-1.104-0.896-2-2-2s-2,0.896-2,2v3.949h-5.085v-3.949   c0-1.104-0.896-2-2-2s-2,0.896-2,2v3.949h-0.847c-1.016,0-2.494,1.715-2.494,1.715L11.175,38.033   c-0.419,0.392-0.76,1.107-0.76,1.598v0.888v11.735c0,2.028,1.646,3.673,3.674,3.673h35.823c2.028,0,3.673-1.645,3.673-3.673V40.519   c0,0,0-0.396,0-0.888c0-0.49-0.341-1.206-0.76-1.598L41.883,27.817z M48.585,50.927h-33.17V40.915l10.114-9.443l0.177-0.161   l0.177-0.205c0.001-0.001,0.002-0.002,0.003-0.004h12.227l0.16,0.185l0.197,0.184l10.114,9.443V50.927z"/><path d="M40.127,8.073H23.873c-8.283,0-15.001,6.718-15.001,15.003v2.004c0,0.565,0.458,1.022,1.024,1.022h9.211   c1.381,0,2.501-1.118,2.501-2.5v-5.153c0-1.38,1.119-2.5,2.5-2.5h15.783c1.381,0,2.501,1.12,2.501,2.5v5.153   c0,1.382,1.119,2.5,2.5,2.5h9.213c0.565,0,1.022-0.457,1.022-1.022v-2.004C55.128,14.791,48.412,8.073,40.127,8.073z"/><path d="M32,33.638c-4.214,0-7.632,3.418-7.632,7.632c0,4.215,3.418,7.632,7.632,7.632c4.215,0,7.632-3.417,7.632-7.632   C39.632,37.056,36.215,33.638,32,33.638z M32,43.133c-1.029,0-1.863-0.834-1.863-1.863s0.834-1.863,1.863-1.863   s1.863,0.834,1.863,1.863S33.029,43.133,32,43.133z"/></g></svg>